<?xml version="1.0" encoding="utf-8"?>
<!-- Generator: Adobe Illustrator 22.0.1, SVG Export Plug-In . SVG Version: 6.00 Build 0)  -->
<svg version="1.1" id="Layer_1" xmlns="http://www.w3.org/2000/svg" xmlns:xlink="http://www.w3.org/1999/xlink" x="0px" y="0px"
	 viewBox="0 0 156.8 133" style="enable-background:new 0 0 156.8 133;" xml:space="preserve">
<style type="text/css">
	.st0{fill:#A3D977;}
	.st1{opacity:0.53;enable-background:new    ;}
	.st2{fill:#F8F8F8;}
	.st3{font-family:'MyriadPro-Bold';}
	.st4{font-size:27.0294px;}
</style>
<g>
	<g>
		<path class="st0" d="M140.6,124.4h-125c-4.3,0-7.5-3.3-7.5-7.5V29.4c0-4.3,3.3-7.5,7.5-7.5h125c4.3,0,7.5,3.3,7.5,7.5v87.5
			C148.1,121.2,144.9,124.4,140.6,124.4z M15.6,26.9c-1.5,0-2.5,1-2.5,2.5v87.5c0,1.5,1,2.5,2.5,2.5h125c1.5,0,2.5-1,2.5-2.5V29.4
			c0-1.5-1-2.5-2.5-2.5H15.6z"/>
	</g>
	<g>
		<path class="st0" d="M98.1,21.9h-5c0-5.5-4.5-10-10-10h-10c-5.5,0-10,4.5-10,10h-5c0-8.3,6.8-15,15-15h10
			C91.4,6.9,98.1,13.7,98.1,21.9z"/>
	</g>
	<g>
		<rect x="10.6" y="56.9" class="st0" width="60" height="5"/>
	</g>
	<g>
		<rect x="85.6" y="56.9" class="st0" width="60" height="5"/>
	</g>
	<g>
		<path class="st0" d="M88.1,69.4H67.9v-20h20.3v20H88.1z M72.9,64.4h10.3v-10H72.9V64.4z"/>
	</g>
</g>
<circle class="st0" cx="78" cy="96.3" r="17.2"/>
<g class="st1">
</g>
<text transform="matrix(1.0071 0 0 1 376.8358 599.0933)"><tspan x="0" y="0" class="st3" style="font-size:12.0598px;">Connect with friends and the</tspan><tspan x="0" y="14.5" class="st3" style="font-size:12.0598px;">world around you on Facebook.</tspan><tspan x="0" y="28.9" class="st3" style="font-size:12.0598px;">See photos and updates from friends in News Feed.</tspan><tspan x="0" y="43.4" class="st3" style="font-size:12.0598px;">Share what&apos;s new in your life on your Timeline.</tspan><tspan x="0" y="57.9" class="st3" style="font-size:12.0598px;">Find more of what you&apos;re looking for with Facebook Search</tspan></text>
<text transform="matrix(0.8758 0 0 1 70.6337 104.923)" class="st2 st3 st4">D</text>
</svg>
